<?xml version="1.0" encoding="UTF-8"?>
<svg version="1.1" xmlns="http://www.w3.org/2000/svg" width="57" height="57">
<path d="M0 0 C18.81 0 37.62 0 57 0 C57 18.81 57 37.62 57 57 C38.19 57 19.38 57 0 57 C0 38.19 0 19.38 0 0 Z " fill="#131420" transform="translate(0,0)"/>
<path d="M0 0 C3.96 0 7.92 0 12 0 C11.2575 0.721875 10.515 1.44375 9.75 2.1875 C4.7316134 7.31994084 2.4949135 9.87634236 2.46875 17.27734375 C2.4649231 17.96631241 2.46109619 18.65528107 2.45715332 19.36512756 C2.45444182 20.81659412 2.4617498 22.26811017 2.47851562 23.71948242 C2.49990839 25.92804242 2.47871035 28.1333383 2.453125 30.34179688 C2.45576906 31.75781961 2.46089566 33.17384033 2.46875 34.58984375 C2.47326172 35.86722412 2.47777344 37.14460449 2.48242188 38.46069336 C3.23499505 43.60694492 5.27005504 46.60717441 9.29516602 49.84790039 C14.47610747 52.05467561 20.17227105 51.47870095 25.71948242 51.44604492 C27.92786973 51.4375371 30.13366485 51.46631589 32.34179688 51.49804688 C33.75781173 51.49965934 35.17383113 51.49908049 36.58984375 51.49609375 C37.86722412 51.49794678 39.14460449 51.4997998 40.46069336 51.50170898 C45.61458172 50.77112745 48.60571954 48.73175196 51.84790039 44.70483398 C54.05467561 39.52389253 53.47870095 33.82772895 53.44604492 28.28051758 C53.4375371 26.07213027 53.46631589 23.86633515 53.49804688 21.65820312 C53.49965934 20.24218827 53.49908049 18.82616887 53.49609375 17.41015625 C53.49794678 16.13277588 53.4997998 14.85539551 53.50170898 13.53930664 C52.91270054 9.38414586 51.61895766 7.24196435 49 4 C46.38142305 2.21037181 46.38142305 2.21037181 44 1 C44 0.67 44 0.34 44 0 C48.29 0 52.58 0 57 0 C57 18.81 57 37.62 57 57 C38.19 57 19.38 57 0 57 C0 38.19 0 19.38 0 0 Z " fill="#0B0D14" transform="translate(0,0)"/>
<path d="M0 0 C1.23556641 0.01740234 1.23556641 0.01740234 2.49609375 0.03515625 C3.32238281 0.04417969 4.14867187 0.05320312 5 0.0625 C5.63808594 0.07410156 6.27617187 0.08570312 6.93359375 0.09765625 C8.93359375 5.84765625 8.93359375 5.84765625 8.93359375 8.09765625 C10.23296875 8.07703125 11.53234375 8.05640625 12.87109375 8.03515625 C14.22525008 8.01366171 15.58115458 8.02617426 16.93359375 8.09765625 C17.93359375 9.09765625 17.93359375 9.09765625 18.03125 11.3828125 C18.01964844 12.29933594 18.00804688 13.21585938 17.99609375 14.16015625 C17.98707031 15.07925781 17.97804688 15.99835937 17.96875 16.9453125 C17.95714844 17.65558594 17.94554688 18.36585937 17.93359375 19.09765625 C13.58026639 19.93788813 9.48916856 20.2053662 5.05859375 20.16015625 C3.90617187 20.15113281 2.75375 20.14210938 1.56640625 20.1328125 C0.69757812 20.12121094 -0.17125 20.10960938 -1.06640625 20.09765625 C-2.5757541 13.64249895 -3.38241786 7.73389997 -3.06640625 1.09765625 C-2.06640625 0.09765625 -2.06640625 0.09765625 0 0 Z " fill="#5997E6" transform="translate(18.06640625,18.90234375)"/>
<path d="M0 0 C0.9075 0.00257812 1.815 0.00515625 2.75 0.0078125 C4.11125 0.00394531 4.11125 0.00394531 5.5 0 C7.75 0.1328125 7.75 0.1328125 8.75 1.1328125 C8.8479057 2.63019374 8.87974864 4.13224142 8.875 5.6328125 C8.87757812 6.4475 8.88015625 7.2621875 8.8828125 8.1015625 C8.75 10.1328125 8.75 10.1328125 7.75 11.1328125 C6.06391034 11.20486761 4.37499341 11.21667318 2.6875 11.1953125 C1.76839844 11.18628906 0.84929688 11.17726563 -0.09765625 11.16796875 C-0.80792969 11.15636719 -1.51820312 11.14476562 -2.25 11.1328125 C-2.44406478 9.48774032 -2.63007935 7.84171656 -2.8125 6.1953125 C-2.91691406 5.27878906 -3.02132813 4.36226562 -3.12890625 3.41796875 C-3.16886719 2.66386719 -3.20882813 1.90976563 -3.25 1.1328125 C-2.25 0.1328125 -2.25 0.1328125 0 0 Z " fill="#5795E2" transform="translate(31.25,12.8671875)"/>
<path d="M0 0 C1.23556641 0.01740234 1.23556641 0.01740234 2.49609375 0.03515625 C3.32238281 0.04417969 4.14867187 0.05320312 5 0.0625 C5.63808594 0.07410156 6.27617187 0.08570312 6.93359375 0.09765625 C6.60359375 0.75765625 6.27359375 1.41765625 5.93359375 2.09765625 C5.89336984 4.43064285 5.89039128 6.76472291 5.93359375 9.09765625 C3.95359375 9.09765625 1.97359375 9.09765625 -0.06640625 9.09765625 C-0.39640625 8.43765625 -0.72640625 7.77765625 -1.06640625 7.09765625 C-1.72640625 8.08765625 -2.38640625 9.07765625 -3.06640625 10.09765625 C-3.09329841 8.61858733 -3.11275246 7.13938142 -3.12890625 5.66015625 C-3.14050781 4.83644531 -3.15210938 4.01273438 -3.1640625 3.1640625 C-3.03158405 0.36081842 -2.80324408 0.13247845 0 0 Z " fill="#4F85CA" transform="translate(18.06640625,18.90234375)"/>
<path d="M0 0 C1.67542976 0.28604898 3.34385343 0.61781233 5 1 C5 4.3 5 7.6 5 11 C0.64667264 11.84023188 -3.44442519 12.10770995 -7.875 12.0625 C-9.02742188 12.05347656 -10.17984375 12.04445313 -11.3671875 12.03515625 C-12.23601563 12.02355469 -13.10484375 12.01195312 -14 12 C-14 10.02 -14 8.04 -14 6 C-13.34 7.32 -12.68 8.64 -12 10 C-9.69 10 -7.38 10 -5 10 C-4.67 9.34 -4.34 8.68 -4 8 C-1.69 8.33 0.62 8.66 3 9 C3 6.69 3 4.38 3 2 C1.68 1.67 0.36 1.34 -1 1 C-0.67 0.67 -0.34 0.34 0 0 Z " fill="#5B9CEC" transform="translate(31,27)"/>
<path d="M0 0 C0 2.31 0 4.62 0 7 C-1.98 7 -3.96 7 -6 7 C-6.33 5.02 -6.66 3.04 -7 1 C-4 0 -4 0 0 0 Z " fill="#1B253B" transform="translate(34,29)"/>
<path d="M0 0 C1.2065625 0.0309375 1.2065625 0.0309375 2.4375 0.0625 C2.4375 2.3725 2.4375 4.6825 2.4375 7.0625 C0.4575 7.0625 -1.5225 7.0625 -3.5625 7.0625 C-3.60504356 5.06295254 -3.60330783 3.06208364 -3.5625 1.0625 C-2.5625 0.0625 -2.5625 0.0625 0 0 Z " fill="#1A2135" transform="translate(22.5625,29.9375)"/>
<path d="M0 0 C0 2.31 0 4.62 0 7 C-1.98 7 -3.96 7 -6 7 C-6 5.02 -6 3.04 -6 1 C-4 0 -4 0 0 0 Z " fill="#181E31" transform="translate(37,15)"/>
<path d="M0 0 C1.98 0 3.96 0 6 0 C6 1.98 6 3.96 6 6 C4.02 6 2.04 6 0 6 C0 4.02 0 2.04 0 0 Z " fill="#141524" transform="translate(18,22)"/>
<path d="M0 0 C0.66 1.32 1.32 2.64 2 4 C4.31 4 6.62 4 9 4 C9.33 3.34 9.66 2.68 10 2 C10.99 2.66 11.98 3.32 13 4 C9.93753253 5.78409802 7.77920727 6.22880021 4.25 6.125 C3.45078125 6.10695313 2.6515625 6.08890625 1.828125 6.0703125 C1.22484375 6.04710937 0.6215625 6.02390625 0 6 C0 4.02 0 2.04 0 0 Z " fill="#5FA3F7" transform="translate(17,33)"/>
<path d="M0 0 C0.33 0.66 0.66 1.32 1 2 C3.32156597 2.40729228 5.6568787 2.74438677 8 3 C8 3.99 8 4.98 8 6 C5.69 6 3.38 6 1 6 C0.67 4.02 0.34 2.04 0 0 Z " fill="#1B2338" transform="translate(26,21)"/>
<path d="M0 0 C1.98 0 3.96 0 6 0 C6 2.31 6 4.62 6 7 C5.34 6.67 4.68 6.34 4 6 C4 4.68 4 3.36 4 2 C2.35 2 0.7 2 -1 2 C-0.67 1.34 -0.34 0.68 0 0 Z " fill="#5DA1F4" transform="translate(33,13)"/>
<path d="M0 0 C0.33 0 0.66 0 1 0 C1 2.97 1 5.94 1 9 C-0.32 9.33 -1.64 9.66 -3 10 C-2.67 8.35 -2.34 6.7 -2 5 C-1.67 5 -1.34 5 -1 5 C-0.67 3.35 -0.34 1.7 0 0 Z " fill="#4D83C7" transform="translate(39,14)"/>
</svg>
